<svg xmlns="http://www.w3.org/2000/svg" width="138" height="23" viewBox="0 0 138 23">
<path fill-rule="evenodd"  fill="rgb(255, 255, 255)"
 d="M132.538,3.057 L132.538,21.957 L129.838,21.957 L129.838,3.057 L125.038,3.057 L125.038,0.957 L137.338,0.957 L137.338,3.057 L132.538,3.057 ZM122.143,14.172 C121.673,14.762 121.083,15.182 120.373,15.432 C119.663,15.682 118.818,15.807 117.838,15.807 C117.378,15.807 116.858,15.777 116.278,15.717 C115.698,15.657 115.218,15.587 114.838,15.507 L114.838,21.957 L112.138,21.957 L112.138,1.257 C112.898,1.037 113.663,0.882 114.433,0.792 C115.203,0.702 116.038,0.657 116.938,0.657 C118.138,0.657 119.158,0.782 119.998,1.032 C120.838,1.282 121.518,1.697 122.038,2.277 C122.558,2.857 122.938,3.627 123.178,4.587 C123.418,5.547 123.538,6.737 123.538,8.157 C123.538,9.617 123.423,10.837 123.193,11.817 C122.963,12.797 122.613,13.582 122.143,14.172 ZM120.613,5.457 C120.463,4.737 120.228,4.167 119.908,3.747 C119.588,3.327 119.183,3.032 118.693,2.862 C118.203,2.692 117.618,2.607 116.938,2.607 L114.838,2.607 L114.838,13.707 L116.938,13.707 C117.618,13.707 118.203,13.622 118.693,13.452 C119.183,13.282 119.588,12.987 119.908,12.567 C120.228,12.147 120.463,11.577 120.613,10.857 C120.763,10.137 120.838,9.237 120.838,8.157 C120.838,7.077 120.763,6.177 120.613,5.457 ZM105.388,16.557 L99.388,16.557 L98.038,21.957 L95.338,21.957 L100.438,0.957 L104.338,0.957 L109.438,21.957 L106.738,21.957 L105.388,16.557 ZM102.448,3.957 L102.328,3.957 L99.838,14.457 L104.938,14.457 L102.448,3.957 ZM89.488,6.357 L89.338,6.357 L84.988,19.257 L82.288,19.257 L77.938,6.357 L77.788,6.357 L76.888,21.957 L74.188,21.957 L75.388,0.957 L78.688,0.957 L83.578,15.357 L83.698,15.357 L88.588,0.957 L91.888,0.957 L93.088,21.957 L90.388,21.957 L89.488,6.357 ZM69.328,20.007 C68.768,20.827 68.093,21.407 67.303,21.747 C66.513,22.087 65.608,22.257 64.588,22.257 C63.568,22.257 62.663,22.087 61.873,21.747 C61.083,21.407 60.408,20.827 59.848,20.007 C59.288,19.187 58.863,18.082 58.573,16.692 C58.283,15.302 58.138,13.557 58.138,11.457 C58.138,9.357 58.283,7.612 58.573,6.222 C58.863,4.832 59.288,3.727 59.848,2.907 C60.408,2.087 61.083,1.507 61.873,1.167 C62.663,0.827 63.568,0.657 64.588,0.657 C65.608,0.657 66.513,0.827 67.303,1.167 C68.093,1.507 68.768,2.087 69.328,2.907 C69.888,3.727 70.313,4.832 70.603,6.222 C70.893,7.612 71.038,9.357 71.038,11.457 C71.038,13.557 70.893,15.302 70.603,16.692 C70.313,18.082 69.888,19.187 69.328,20.007 ZM68.023,7.017 C67.813,5.857 67.538,4.937 67.198,4.257 C66.858,3.577 66.458,3.107 65.998,2.847 C65.538,2.587 65.068,2.457 64.588,2.457 C64.108,2.457 63.638,2.587 63.178,2.847 C62.718,3.107 62.318,3.577 61.978,4.257 C61.638,4.937 61.363,5.857 61.153,7.017 C60.943,8.177 60.838,9.657 60.838,11.457 C60.838,13.257 60.943,14.737 61.153,15.897 C61.363,17.057 61.638,17.977 61.978,18.657 C62.318,19.337 62.718,19.807 63.178,20.067 C63.638,20.327 64.108,20.457 64.588,20.457 C65.068,20.457 65.538,20.327 65.998,20.067 C66.458,19.807 66.858,19.337 67.198,18.657 C67.538,17.977 67.813,17.057 68.023,15.897 C68.233,14.737 68.338,13.257 68.338,11.457 C68.338,9.657 68.233,8.177 68.023,7.017 ZM51.838,12.357 L45.539,12.357 L45.539,21.957 L42.839,21.957 L42.839,0.957 L45.539,0.957 L45.539,10.257 L51.838,10.257 L51.838,0.957 L54.539,0.957 L54.539,21.957 L51.838,21.957 L51.838,12.357 ZM37.589,21.957 L33.839,12.957 L30.089,21.957 L27.389,21.957 L31.889,11.157 L27.839,0.957 L30.539,0.957 L33.839,9.357 L37.139,0.957 L39.839,0.957 L35.789,11.157 L40.289,21.957 L37.589,21.957 ZM15.539,0.957 L25.739,0.957 L25.739,3.057 L18.239,3.057 L18.239,9.957 L24.839,9.957 L24.839,12.057 L18.239,12.057 L18.239,19.857 L25.739,19.857 L25.739,21.957 L15.539,21.957 L15.539,0.957 ZM8.339,21.957 L5.639,21.957 L5.639,3.057 L0.839,3.057 L0.839,0.957 L13.139,0.957 L13.139,3.057 L8.339,3.057 L8.339,21.957 Z"/>
</svg>
